<svg width="106" height="89" viewBox="0 0 106 89" fill="none" xmlns="http://www.w3.org/2000/svg">
<path d="M38.4377 27.8893H46.9333V45.2811C42.1675 50.627 35.3295 53.3 26.4194 53.3C18.8907 53.3 12.6053 50.8006 7.5632 45.8018C2.52107 40.8029 0 34.5544 0 27.0562C0 19.558 2.5556 13.2747 7.66681 8.20651C12.8471 3.06884 19.098 0.5 26.4194 0.5C33.7409 0.5 39.8191 2.61755 44.654 6.85266L40.0953 13.4136C36.5728 10.4282 32.2559 8.9355 27.1447 8.9355C21.9644 8.9355 17.6129 10.6365 14.0904 14.0385C10.6368 17.371 8.91008 21.7103 8.91008 27.0562C8.91008 32.4022 10.5678 36.7414 13.8831 40.074C17.2676 43.3371 21.4463 44.9686 26.4194 44.9686C31.2543 44.9686 35.2604 43.9272 38.4377 41.8444V27.8893Z" fill="white"/>
<line x1="56.2334" y1="0.5" x2="56.2334" y2="35.7" stroke="white"/>
<line x1="56.2334" y1="35.7" x2="56.2334" y2="70.8999" stroke="#4295E4"/>
<path d="M86.7834 88.4999C78.5426 88.4999 71.1258 85.9333 64.5332 80.7999L69.7524 72.4124C75.6125 76.9041 81.3811 79.1499 87.0581 79.1499C89.4387 79.1499 91.3158 78.5999 92.6893 77.4999C94.1543 76.3083 94.8868 74.8416 94.8868 73.0999C94.8868 70.5333 91.4989 68.2416 84.7232 66.2249C84.54 66.1333 84.3111 66.0416 84.0364 65.9499C83.8533 65.8583 83.716 65.8124 83.6244 65.8124C73.0029 62.9708 67.6922 58.1583 67.6922 51.3749C67.6922 46.6083 69.4777 42.8041 73.0487 39.9624C76.7113 37.1208 81.5184 35.7 87.4701 35.7C93.3302 35.7 98.9157 37.4416 104.226 40.9249L100.243 48.8999C96.1229 46.1499 91.5905 44.7749 86.646 44.7749C80.8775 44.7749 77.9932 46.6083 77.9932 50.2749C77.9932 51.8333 78.5426 52.9791 79.6413 53.7124C80.8317 54.3541 82.7545 54.9958 85.4099 55.6374C89.4387 56.7374 92.8266 57.8374 95.5736 58.9374C97.4048 59.7624 99.0072 60.6333 100.381 61.5499C103.86 63.9333 105.6 67.5541 105.6 72.4124C105.6 77.1791 103.814 81.0749 100.243 84.0999C96.7639 87.0333 92.2772 88.4999 86.7834 88.4999Z" fill="#4295E4"/>
</svg>
